<svg width="41" height="40" viewBox="0 0 41 40" fill="none" xmlns="http://www.w3.org/2000/svg">
<path d="M0.669186 20C0.669186 9.22902 9.374 0.5 20.1088 0.5C30.8435 0.5 39.5483 9.22902 39.5483 20C39.5483 30.771 30.8435 39.5 20.1088 39.5C9.374 39.5 0.669186 30.771 0.669186 20Z" fill="white" stroke="#076BFF"/>
<g clip-path="url(#clip0_3910_130)">
<path d="M25.6795 20.5226L17.2181 29.8232C17.0224 30.0385 16.7538 30.1645 16.4619 30.1781C16.1699 30.1916 15.891 30.091 15.6765 29.8947L14.9936 29.2705C14.5493 28.8638 14.5176 28.1707 14.9231 27.7251L22.0284 19.915L14.2331 12.788C14.0186 12.5918 13.8928 12.3228 13.8795 12.0303C13.8661 11.7375 13.9668 11.4579 14.1625 11.2425L14.7856 10.5579C14.9815 10.3426 15.2499 10.2165 15.5419 10.203C15.8338 10.1894 16.1127 10.2901 16.3272 10.4863L25.6087 18.9718C25.8237 19.1687 25.9492 19.439 25.9619 19.732C25.976 20.0261 25.8757 20.3068 25.6795 20.5226Z" fill="#076BFF"/>
</g>
<defs>
<clipPath id="clip0_3910_130">
<rect width="19.9396" height="20" fill="white" transform="matrix(1 0 2.22607e-08 -1 10.1389 30)"/>
</clipPath>
</defs>
</svg>
