<svg width="41" height="40" viewBox="0 0 41 40" fill="none" xmlns="http://www.w3.org/2000/svg">
<path d="M40.3398 20C40.3398 30.771 31.635 39.5 20.9003 39.5C10.1655 39.5 1.46069 30.771 1.46069 20C1.46069 9.22902 10.1655 0.5 20.9003 0.5C31.635 0.5 40.3398 9.22902 40.3398 20Z" fill="white" stroke="#076BFF"/>
<g clip-path="url(#clip0_3910_124)">
<path d="M15.3293 19.4774L23.7908 10.1768C23.9865 9.96154 24.2551 9.83548 24.547 9.82194C24.8389 9.80839 25.1179 9.90905 25.3323 10.1053L26.0152 10.7295C26.4596 11.1362 26.4912 11.8293 26.0858 12.2749L18.9805 20.085L26.7758 27.212C26.9903 27.4082 27.116 27.6772 27.1294 27.9697C27.1427 28.2625 27.042 28.5421 26.8463 28.7575L26.2232 29.4421C26.0273 29.6574 25.7589 29.7835 25.467 29.797C25.1751 29.8106 24.8961 29.7099 24.6817 29.5137L15.4001 21.0282C15.1851 20.8313 15.0596 20.561 15.0469 20.268C15.0328 19.9739 15.1332 19.6932 15.3293 19.4774Z" fill="#076BFF"/>
</g>
<defs>
<clipPath id="clip0_3910_124">
<rect width="19.9396" height="20" fill="white" transform="matrix(-1 0 -2.22607e-08 1 30.87 10)"/>
</clipPath>
</defs>
</svg>
